<?xml version="1.0" encoding="UTF-8"?>
<svg width="60px" height="60px" viewBox="0 0 60 60" version="1.1" xmlns="http://www.w3.org/2000/svg" xmlns:xlink="http://www.w3.org/1999/xlink">
    <!-- Generator: Sketch 64 (93537) - https://sketch.com -->
    <title>icon / lens / Anti-Reflective</title>
    <desc>Created with Sketch.</desc>
    <defs>
        <polygon id="path-1" points="2.42424242e-05 0.113225806 59.8866667 0.113225806 59.8866667 59.8789839 2.42424242e-05 59.8789839"></polygon>
    </defs>
    <g id="icon-/-lens-/-Anti-Reflective" stroke="none" stroke-width="1" fill="none" fill-rule="evenodd">
        <g>
            <g id="Group-3" transform="translate(0.000000, 0.007742)">
                <mask id="mask-2" fill="white">
                    <use xlink:href="#path-1"></use>
                </mask>
                <g id="Clip-2"></g>
                <path d="M29.943297,1.33277419 C22.2716606,1.33277419 15.0590545,4.31426613 9.63432727,9.72805645 C4.2096,15.1418468 1.22208485,22.3397903 1.22208485,29.9960806 C1.22208485,37.652371 4.2096,44.8503145 9.63432727,50.2641048 C15.0590545,55.6778952 22.2716606,58.6593871 29.943297,58.6593871 C37.6150545,58.6593871 44.8275394,55.6778952 50.2523879,50.2641048 C55.6771152,44.8503145 58.6646303,37.652371 58.6646303,29.9960806 C58.6646303,22.3397903 55.6771152,15.1418468 50.2523879,9.72805645 C44.8275394,4.31426613 37.6150545,1.33277419 29.943297,1.33277419 M29.943297,59.8789839 C21.9452364,59.8789839 14.4257212,56.7707177 8.77008485,51.1266048 C3.1145697,45.4824919 2.42424242e-05,37.9782581 2.42424242e-05,29.9960806 C2.42424242e-05,22.0140242 3.1145697,14.5097903 8.77008485,8.86555645 C14.4257212,3.22144355 21.9452364,0.113177419 29.943297,0.113177419 C37.9414788,0.113177419 45.4609939,3.22144355 51.1165091,8.86555645 C56.7721455,14.5097903 59.8866909,22.0140242 59.8866909,29.9960806 C59.8866909,37.9782581 56.7721455,45.4824919 51.1165091,51.1266048 C45.4609939,56.7707177 37.9414788,59.8789839 29.943297,59.8789839" id="Fill-1" fill="#058798" mask="url(#mask-2)"></path>
            </g>
            <path d="M29.9165455,36.2947621 L29.498,36.0535524 C28.2052727,35.308754 27.7624848,33.6592379 28.5086667,32.3691169 L35.2703636,20.6812137 C36.0166667,19.3912137 37.6695152,18.9491976 38.9622424,19.693996 L39.3807879,19.9352056 C40.6733939,20.680004 41.116303,22.3296411 40.37,23.6196411 L33.6084242,35.3075444 C32.8621212,36.5975444 31.2091515,37.0395605 29.9165455,36.2947621" id="Fill-4" fill="#0B99A7"></path>
            <path d="M29.4979879,31.4215524 L29.9165333,31.1803427 C31.2091394,30.4355444 32.8621091,30.8775605 33.6084121,32.1675605 L40.3699879,43.8554637 C41.1164121,45.1454637 40.6733818,46.7951008 39.3807758,47.5398992 L38.9622303,47.7809879 C37.669503,48.5259073 36.0166545,48.0838911 35.2703515,46.7937702 L28.5086545,35.1059879 C27.7624727,33.8158669 28.2052606,32.1663508 29.4979879,31.4215524" id="Fill-6" fill="#0B99A7"></path>
            <polygon id="Fill-8" fill="#0B99A7" points="30.3560606 18.4454032 44.6095152 25.7315323 43.219697 10.9108065"></polygon>
            <path d="M21.9991758,54.3982137 L21.2698424,54.3982137 C19.9852364,54.3982137 18.9437818,52.9161169 18.9437818,51.0879315 L18.9437818,10.7493024 C18.9437818,8.9212379 19.9852364,7.43914113 21.2698424,7.43914113 L21.9991758,7.43914113 C23.6866909,7.43914113 24.1380848,8.74353629 25.0546909,11.7872056 C25.0546909,11.7872056 26.887903,19.1708347 26.887903,30.9186169 C26.887903,41.7887782 25.0546909,50.0501492 25.0546909,50.0501492 C24.4435394,52.6589395 23.6866909,54.3982137 21.9991758,54.3982137" id="Fill-10" fill="#7ACED8"></path>
        </g>
    </g>
</svg>