<svg xmlns="http://www.w3.org/2000/svg" viewBox="0 0 485.92 485.92"><defs><style>.cls-1{fill:none;stroke:#058798;stroke-width:9.92px;}.cls-1,.cls-2,.cls-3,.cls-4{stroke-miterlimit:10;}.cls-2,.cls-3,.cls-4{fill:#7ccfd9;stroke:#fff;}.cls-3,.cls-4{stroke-linecap:round;}.cls-3{stroke-width:7px;}.cls-4{stroke-width:8px;}</style></defs><g id="Layer_2" data-name="Layer 2"><g id="Layer_1-2" data-name="Layer 1"><circle class="cls-1" cx="242.96" cy="242.96" r="238"/><path class="cls-2" d="M78.61,300.64H404.73s9-42.5-13.91-69.47-41.68-22.88-41.68-22.88,10.62-31.88-27.79-54.76c-20.84-12.42-57.21.82-57.21.82s-31.88-57.24-90.72-30.25c-45.62,20.93-34.33,64.57-34.33,64.57s-23.7-5.94-33.88,17.15c-6.47,14.7,6.91,34.34,6.91,34.34S96.59,239.35,86,252.42,78.61,300.64,78.61,300.64Z"/><path class="cls-3" d="M251.06,224s6.7-10.1,14.71-31.06c10.63-27.79-11.95-56.54-11.95-56.54"/><path class="cls-4" d="M82.57,250.76s15.71-18.45,49.49-.65c22.66,11.94,18.53,8,18.53,8"/><path class="cls-3" d="M336.17,205.54s5.67-.55,11.12,6S351.1,224,351.1,224"/></g></g></svg>