<?xml version="1.0" encoding="UTF-8"?>
<svg width="60px" height="60px" viewBox="0 0 60 60" version="1.1" xmlns="http://www.w3.org/2000/svg" xmlns:xlink="http://www.w3.org/1999/xlink">
    <!-- Generator: Sketch 64 (93537) - https://sketch.com -->
    <title>Icon / lens / Smudge-Resistant</title>
    <desc>Created with Sketch.</desc>
    <defs>
        <polygon id="path-1" points="0 0.0334620123 59.9665062 0.0334620123 59.9665062 59.8767474 0 59.8767474"></polygon>
    </defs>
    <g id="Icon-/-lens-/-Smudge-Resistant" stroke="none" stroke-width="1" fill="none" fill-rule="evenodd">
        <g>
            <path d="M30.8499753,52.7470719 C30.8499753,52.7470719 20.6287407,52.0352033 17.1104691,45.1960657 C12.0741728,35.4057166 15.9426914,28.488345 17.1447901,20.164115 C18.5454074,10.4654292 25.0988642,8.85023409 28.1247901,8.37922793 C32.0903457,7.76173306 36.959358,10.4247721 39.0319506,15.5013634 C41.6055309,21.8050595 44.4276296,31.2618973 41.4977531,43.7657988 C38.9397284,54.6822259 30.8499753,52.7470719 30.8499753,52.7470719" id="Fill-1" fill="#7ACED8"></path>
            <g id="Group-5" transform="translate(0.000000, 0.089815)">
                <mask id="mask-2" fill="white">
                    <use xlink:href="#path-1"></use>
                </mask>
                <g id="Clip-4"></g>
                <path d="M29.9832963,1.25465298 C22.301321,1.25465298 15.0792222,4.23999179 9.64724691,9.66081314 C4.2152716,15.0816345 1.22379012,22.2890267 1.22379012,29.9551047 C1.22379012,37.621306 4.2152716,44.8285749 9.64724691,50.2493963 C15.0792222,55.6702177 22.301321,58.6555565 29.9832963,58.6555565 C37.6651481,58.6555565 44.8873704,55.6702177 50.3192222,50.2493963 C55.7511975,44.8285749 58.7428025,37.621306 58.7428025,29.9551047 C58.7428025,22.2890267 55.7511975,15.0816345 50.3192222,9.66081314 C44.8873704,4.23999179 37.6651481,1.25465298 29.9832963,1.25465298 M29.9832963,59.8767474 C21.9744074,59.8767474 14.4450247,56.7645092 8.78193827,51.1130513 C3.11885185,45.4614702 -3.7037037e-05,37.9474251 -3.7037037e-05,29.9551047 C-3.7037037e-05,21.9627844 3.11885185,14.4487392 8.78193827,8.79728131 C14.4450247,3.14582341 21.9744074,0.0334620123 29.9832963,0.0334620123 C37.9921852,0.0334620123 45.5215679,3.14582341 51.1846543,8.79728131 C56.8477407,14.4487392 59.9665062,21.9627844 59.9665062,29.9551047 C59.9665062,37.9474251 56.8477407,45.4614702 51.1846543,51.1130513 C45.5215679,56.7645092 37.9921852,59.8767474 29.9832963,59.8767474" id="Fill-3" fill="#058798" mask="url(#mask-2)"></path>
            </g>
            <path d="M15.5581481,48.8632731 C15.4567901,48.8632731 15.3575309,48.8131294 15.2993827,48.7213429 C15.2088889,48.5787967 15.251358,48.3901725 15.3940741,48.2999877 L18.4537037,46.3661889 C21.5791358,44.3908706 24.6238272,40.6895975 26.8069136,36.2115277 C27.9935802,33.7772772 27.4976543,29.8085298 27.4924691,29.7687351 C27.4708642,29.6014251 27.5891358,29.4484066 27.7567901,29.4267228 C27.9254321,29.4059014 28.0777778,29.523191 28.0993827,29.690501 C28.121358,29.8603984 28.622963,33.8818768 27.3571605,36.4786324 C25.125679,41.0558809 21.9998765,44.8477084 18.7811111,46.8821643 L15.7216049,48.8158398 C15.6707407,48.8479959 15.6140741,48.8632731 15.5581481,48.8632731" id="Fill-6" fill="#FEFEFE"></path>
            <path d="M16.0677654,49.8810308 C15.9894938,49.8810308 15.9110988,49.8512156 15.8514691,49.791462 C15.731963,49.6723244 15.731963,49.4790185 15.8514691,49.3598809 L16.8712222,48.3420986 C17.371963,47.842386 18.1206049,47.4998809 18.9873951,47.1032895 C19.9766543,46.6506407 21.0978889,46.1377454 22.0480123,45.2785257 C22.3527037,45.0027967 22.6928272,44.7080945 23.0529506,44.3960205 C24.844679,42.8434127 27.0744321,40.9109692 27.980358,38.7742546 C29.0343086,36.2882587 29.3331975,34.3263696 29.1224568,31.2773347 C29.0139383,29.7084641 28.8170247,28.924152 28.4638148,28.6549528 C28.2435679,28.4872731 27.9015926,28.4728583 27.2439383,28.604193 C26.4914691,28.7543778 26.6486296,30.4505175 26.7873951,31.9469446 C26.8659136,32.7943368 26.9471481,33.6704353 26.876284,34.3415236 C26.6891235,36.1172526 26.1086296,36.889614 23.9488765,39.7632074 C23.6461605,40.1660821 23.311716,40.6112156 22.9422099,41.1069856 C19.971963,45.0934743 15.3694938,47.2203326 15.1750494,47.309039 C15.0214691,47.3787721 14.8398642,47.3115031 14.7696173,47.1579918 C14.6994938,47.0047269 14.7671481,46.8236181 14.9207284,46.7535154 C14.9670247,46.7323244 19.5772716,44.5997988 22.4512222,40.7426735 C22.8212222,40.2460411 23.1561605,39.8004148 23.4594938,39.3968008 C25.5392469,36.6294086 26.0982593,35.8856304 26.2678889,34.2775811 C26.3323333,33.6664928 26.2538148,32.8208255 26.1781358,32.0032485 C26.007642,30.1646858 25.8313457,28.2634127 27.1240617,28.0054251 C27.8355432,27.8634949 28.3988765,27.8370062 28.8352963,28.169655 C29.3629506,28.5719138 29.606284,29.4027967 29.7328272,31.2351992 C29.9509753,34.3917906 29.6398642,36.4269856 28.5439383,39.0121602 C27.5827037,41.279347 25.2935679,43.2630431 23.4541852,44.8571704 C23.0965309,45.1669035 22.7587531,45.4596345 22.4588765,45.7308049 C21.4387531,46.6535975 20.271963,47.1874374 19.2424568,47.6583203 C18.4292469,48.0303943 17.7269012,48.3517084 17.3039383,48.7738029 L16.2840617,49.791462 C16.2244321,49.8512156 16.146037,49.8810308 16.0677654,49.8810308" id="Fill-8" fill="#FEFEFE"></path>
            <path d="M16.0680741,50.7969856 C15.9660988,50.7969856 15.8663457,50.7461027 15.808321,50.6534538 C15.7188148,50.5104148 15.7622716,50.3221602 15.9056049,50.2327146 C15.9220247,50.2224887 17.5872099,49.1885667 20.8262222,47.572386 C23.7030123,46.1369446 24.6979506,45.1373963 26.8779506,42.9475811 C27.1319012,42.6925503 27.4011605,42.4219959 27.6907901,42.133577 C30.2886914,39.5453224 30.9586914,35.4607639 30.7272099,33.9484435 C30.5343704,32.6880739 30.5935062,32.3731663 30.6689383,32.2450349 C30.7233827,31.8709897 30.915358,30.0623655 29.9617778,27.8131663 C29.6457284,27.0676632 29.1723951,26.6359589 28.5548642,26.5295113 C27.5323951,26.3539466 26.2030123,27.104501 25.4717778,27.9005175 C24.9094321,28.5127146 25.1227654,29.6380534 25.3485679,30.8294292 C25.5122716,31.6933306 25.6816543,32.5868008 25.5475802,33.3448706 L25.5321481,33.4324682 C25.2821481,34.8486899 25.2568395,34.8865133 23.9333827,36.867499 C23.6656049,37.2685257 23.3428889,37.7514825 22.9523951,38.3447064 C20.6043704,41.9102094 15.4498025,45.7891417 15.2315309,45.9525092 C15.0964691,46.0535359 14.9046173,46.0261848 14.8031358,45.8915236 C14.7017778,45.756616 14.7291852,45.5651581 14.8643704,45.4640082 C14.916963,45.4247064 20.1522716,41.4850349 22.441037,38.0092238 C22.8325185,37.4148912 23.1558519,36.9308255 23.4242469,36.5288131 C24.7017778,34.6165749 24.7017778,34.6165749 24.9295556,33.3263901 L24.9449877,33.2386694 C25.059679,32.5907433 24.9007901,31.752961 24.7473333,30.9428994 C24.5033827,29.6561643 24.2511605,28.3255688 25.0207901,27.4879097 C25.8559753,26.5786694 27.3506667,25.7024476 28.6588148,25.9279097 C29.2336296,26.0267187 30.0241235,26.3930021 30.525358,27.5752608 C31.6706667,30.2768624 31.2748642,32.3488953 31.2573333,32.4357536 L31.2086914,32.6790801 C31.2093086,32.8548912 31.2317778,33.2001068 31.3322716,33.8562875 C31.5874568,35.5240903 30.9081975,39.7909897 28.1231358,42.5656509 C27.8341235,42.8534538 27.565358,43.1235154 27.3121481,43.3779302 C25.151037,45.5486489 24.0664691,46.6382587 21.0998025,48.1186694 C17.8902963,49.7200657 16.2460988,50.7404353 16.2299259,50.750538 C16.1794321,50.7819548 16.1233827,50.7969856 16.0680741,50.7969856" id="Fill-10" fill="#FEFEFE"></path>
            <path d="M14.4363086,44.7922793 C14.343716,44.7922793 14.2521111,44.7503901 14.1919877,44.670924 C14.0901358,44.536386 14.1169259,44.3449281 14.2516173,44.2432854 C14.3011235,44.2059548 19.2159383,40.4751129 21.0987778,36.8162218 C22.939642,33.2385216 23.2014938,32.1869815 23.3117407,31.4167146 C23.3260617,31.3164271 23.273716,30.99154 23.2229753,30.6774949 C22.9797654,29.1687474 22.4734691,26.0296509 25.1327284,24.9681314 C27.1147037,24.1769199 28.6838395,24.0602464 29.929642,24.6114579 C31.0360617,25.1009446 31.8900123,26.1365914 32.468037,27.6895688 C33.0719877,29.3122793 33.262358,31.3536345 33.033963,33.7565914 C32.8030988,36.1851745 32.2079136,38.2229569 31.9626049,38.9864476 L31.1468025,41.5267762 C31.0950741,41.6875565 30.9224815,41.7756468 30.7621111,41.7245175 C30.6011235,41.6730185 30.5124815,41.5010267 30.563963,41.3404928 L31.3798889,38.8000411 C32.3565556,35.759384 33.0774198,31.0807392 31.8944568,27.9022177 C31.3686543,26.4895688 30.6449506,25.5958522 29.6816173,25.1695688 C28.5944568,24.6885832 27.1808765,24.8083368 25.3598889,25.5349897 C23.1554444,26.415154 23.592358,29.1246407 23.8271728,30.5802875 C23.8981605,31.0203696 23.9449506,31.310883 23.9174198,31.5030801 C23.7998889,32.3247228 23.5272963,33.4334292 21.6430988,37.0950308 C20.823716,38.6874333 19.3918642,40.4571253 17.3874198,42.3549487 C15.9006296,43.7625462 14.6330988,44.7210678 14.6203827,44.7305544 C14.5651975,44.7721971 14.5005062,44.7922793 14.4363086,44.7922793" id="Fill-12" fill="#FEFEFE"></path>
            <path d="M19.1337531,49.8810308 C18.9647407,49.8810308 18.8278272,49.7443984 18.8278272,49.5756099 C18.8278272,49.4069446 18.9647407,49.2703121 19.1337531,49.2703121 C19.1657284,49.2701889 22.4123951,49.2243573 25.4381975,46.204768 C28.5764691,43.0728172 29.7458519,42.1474374 29.7942469,42.109614 C29.9268395,42.005384 30.1190617,42.028423 30.2236296,42.1608665 C30.3281975,42.2933101 30.3052346,42.4852608 30.1725185,42.5894908 C30.1609136,42.598731 28.9741235,43.5396345 25.8709136,46.6364723 C22.656716,49.8440698 19.2760988,49.8810308 19.1337531,49.8810308" id="Fill-14" fill="#FEFEFE"></path>
            <path d="M21.3744815,51.0689076 C20.9392963,51.0689076 20.704358,50.9762587 20.6688025,50.9611047 C20.5134938,50.8948214 20.4413951,50.7154374 20.5078148,50.5603244 C20.5737407,50.4065667 20.7512716,50.3347392 20.9055926,50.3980657 C21.4554691,50.6099754 23.1770741,50.4495647 25.765716,48.3222136 C29.2227531,45.4811458 29.7313951,44.8805298 31.8123827,41.1823368 C34.4611481,36.475848 34.1236173,31.6333429 34.1199136,31.584924 C34.1068272,31.4168747 34.233,31.2701396 34.4015185,31.2572033 C34.5705309,31.2432813 34.7170741,31.3700575 34.7299136,31.5383532 C34.745716,31.7433634 35.0846049,36.6150678 32.3460864,41.4814743 C30.2352222,45.232152 29.6565802,45.9155606 26.1547284,48.7935893 C24.6776914,50.0075113 23.3253457,50.745499 22.1353457,50.9869774 C21.835963,51.0477166 21.5823827,51.0689076 21.3744815,51.0689076" id="Fill-16" fill="#FEFEFE"></path>
            <path d="M14.4363086,42.6549856 C14.3428519,42.6549856 14.2505062,42.6123573 14.1905062,42.5316591 C14.0897654,42.3962587 14.118037,42.2051704 14.253716,42.1045133 C14.2658148,42.0955195 15.4816173,41.189729 16.8777901,39.7896468 C18.1572963,38.5066078 19.8551975,36.5335072 20.6777901,34.420694 C21.609642,32.0275934 21.5026049,30.4783121 21.408284,29.1113717 C21.3398889,28.120078 21.2751975,27.1838563 21.6184074,26.1052115 C22.3928519,23.6712074 24.1538395,22.4300575 27.1605062,22.1992977 C29.8511235,21.9914538 31.118284,22.562501 33.0543333,24.8510021 C34.9206296,27.0569569 34.7559383,29.9428706 34.748037,30.0647187 C34.7370494,30.2330144 34.592358,30.3637331 34.4229753,30.3495647 C34.2543333,30.3387228 34.1265556,30.1934661 34.1375432,30.0251704 C34.1391481,29.9980657 34.2905062,27.2586407 32.5868025,25.244883 C30.788284,23.1191335 29.6821111,22.6183121 27.2074198,22.8080452 C24.4440864,23.0203244 22.9002593,24.0941643 22.2016173,26.2900164 C21.893716,27.2577782 21.9516173,28.0974086 22.0187778,29.0694825 C22.1175432,30.5001191 22.2295185,32.1215975 21.2481605,34.6418439 C19.6033457,38.8663614 14.8212469,42.4445544 14.6185309,42.5947392 C14.563716,42.6353963 14.4997654,42.6549856 14.4363086,42.6549856" id="Fill-18" fill="#FEFEFE"></path>
            <path d="M14.4361852,40.8230637 C14.3508765,40.8230637 14.2659383,40.7875811 14.205321,40.7182177 C14.0943333,40.5910719 14.1076667,40.3982587 14.2350741,40.287499 C14.2663086,40.2603943 17.3675432,37.5496756 18.5501358,35.2877864 C18.919642,34.5809692 19.2017407,34.1024476 19.4284074,33.7180534 C19.9426049,32.8456509 20.0807531,32.6111951 20.1477901,31.542653 C20.1759383,31.0920986 20.1558148,30.5022012 20.1324815,29.8194086 C20.0730988,28.0823655 19.9991481,25.9203943 20.6855679,24.4470062 C21.1743333,23.397807 22.2207531,22.3274168 23.5565556,21.5100862 C25.0042099,20.624501 26.6719877,20.1098809 28.2527284,20.0612156 C31.6824815,19.9568624 33.481,22.3860616 33.5559383,22.4894292 C33.6547037,22.6261848 33.6238395,22.8170267 33.4868025,22.9157125 C33.3498889,23.0142752 33.1586543,22.9837207 33.059642,22.8468419 C33.0434691,22.8245421 31.3693951,20.5750965 28.2714938,20.6715647 C25.0427284,20.7708665 22.1079136,22.8424066 21.2403827,24.704501 C20.6156914,26.0455688 20.6868025,28.1264723 20.743963,29.7985873 C20.7679136,30.4971499 20.7885309,31.1007228 20.7584074,31.5805996 C20.682358,32.7950144 20.4845802,33.1306201 19.9556914,34.0276632 C19.7326049,34.4061437 19.4549506,34.8771499 19.0926049,35.5702916 C17.8563086,37.9350554 14.7679136,40.634193 14.6369259,40.7480329 C14.5790247,40.7982998 14.5074198,40.8230637 14.4361852,40.8230637" id="Fill-20" fill="#FEFEFE"></path>
            <path d="M18.7190123,53.8502464 C18.5716049,53.8502464 18.4417284,53.7435524 18.4174074,53.593614 C18.3903704,53.4271663 18.5037037,53.2704517 18.6704938,53.2434702 C18.7014815,53.2384189 21.8102469,52.7181314 24.8765432,50.743922 C25.8354321,50.1264271 26.5832099,49.7212115 27.242963,49.3637988 C28.7333333,48.556078 29.5544444,48.111191 30.8002469,46.2509446 C32.5996296,43.5644969 33.7551852,40.4438809 33.7666667,40.4127105 C33.8248148,40.254271 34.0008642,40.1734497 34.1591358,40.2309856 C34.3179012,40.2891376 34.3993827,40.4644559 34.3412346,40.6227721 C34.3293827,40.6546817 33.1485185,43.8437988 31.3090123,46.5902464 C29.9791358,48.5757906 29.0591358,49.0743943 27.5349383,49.9003491 C26.8846914,50.2527105 26.1477778,50.6521355 25.2082716,51.2569405 C22.0293827,53.3035934 18.8997531,53.8251129 18.7680247,53.8463039 C18.7516049,53.8488912 18.7351852,53.8502464 18.7190123,53.8502464" id="Fill-22" fill="#FEFEFE"></path>
            <path d="M20.962642,54.5626324 C20.816716,54.5626324 20.6875802,54.4580329 20.6616543,54.3096961 C20.632642,54.1437413 20.744,53.9854251 20.9104198,53.9564723 C20.9622716,53.9474784 26.1285679,53.0204969 29.2564691,50.2628378 C32.1337531,47.7259589 33.8998025,45.3249733 35.161284,42.2345421 C36.2693086,39.5204969 36.3678272,39.2397166 36.9801728,36.0834949 C37.5891852,32.9424271 37.7990617,32.3313388 37.8077037,32.3066982 C37.864,32.1477659 38.0386914,32.0643573 38.1979506,32.1201684 C38.3573333,32.1762259 38.441037,32.3505585 38.3849877,32.509614 C38.3770864,32.5325298 38.1731358,33.1455893 37.5807901,36.1994292 C36.9604198,39.3980329 36.8398025,39.7416468 35.7279506,42.464809 C34.4285679,45.6482587 32.6142469,48.1171294 29.6615309,50.7204148 C26.4021481,53.5942546 21.234,54.5200041 21.0156049,54.5580739 C20.9978272,54.561154 20.9801728,54.5626324 20.962642,54.5626324" id="Fill-24" fill="#FEFEFE"></path>
            <path d="M35.0361728,38.6475154 C34.9997531,38.6475154 34.962963,38.6408624 34.927037,38.6270637 C34.7704938,38.5665708 34.6912346,38.393347 34.7506173,38.2366324 C34.7683951,38.1895688 34.7941975,38.1405339 34.83,38.0724025 C35.517037,36.7671869 35.8954321,34.5746612 35.9546914,31.5555647 C36.0058025,28.9527721 35.4276543,27.1318275 34.9337037,26.0627926 C34.3992593,24.9061602 33.8455556,24.3558111 33.8401235,24.3503901 C33.7198765,24.2323614 33.7175309,24.0393018 33.8354321,23.9189322 C33.9532099,23.7986858 34.1461728,23.7959754 34.2671605,23.9130185 C34.3653086,24.0082546 36.6697531,26.3050103 36.5665432,31.5676386 C36.4741975,36.2616838 35.6444444,37.8383162 35.3718519,38.356386 C35.3491358,38.3992608 35.3318519,38.430308 35.3228395,38.4528542 C35.2750617,38.5731006 35.158642,38.6475154 35.0361728,38.6475154" id="Fill-26" fill="#FEFEFE"></path>
            <path d="M13.3195309,39.4492977 C13.3089136,39.4492977 13.2999012,39.4489281 13.2923704,39.4483121 L13.3360741,38.8393183 C13.3360741,38.8393183 13.3271852,38.8369774 13.3101481,38.8389487 C13.3159506,38.8383326 13.904963,38.7580041 14.7742222,37.0226858 C15.7642222,35.0469979 15.9805185,34.4372649 15.9826173,34.4313511 C16.0381728,34.2722957 16.2123704,34.188271 16.3717531,34.2429733 C16.5311358,34.2980452 16.6159506,34.471269 16.5611358,34.6305708 C16.5524938,34.6554579 16.3387901,35.2654374 15.3216296,37.2958275 C14.3155802,39.3037947 13.5261975,39.4492977 13.3195309,39.4492977" id="Fill-28" fill="#FEFEFE"></path>
            <path d="M16.8834444,36.4581314 C16.833321,36.4581314 16.7825802,36.4458111 16.7355432,36.4198152 C16.5877654,36.3382546 16.5341852,36.1525873 16.6159136,36.0049897 C16.6309753,35.977885 18.1238148,33.2698768 18.417642,31.5115195 C18.5888765,30.4856057 18.6622099,28.9407598 18.7329506,27.4469199 C18.786284,26.3256468 18.8364074,25.2664682 18.9256667,24.5387064 C19.1299877,22.8696715 21.2918395,19.3082341 25.580358,18.2382136 C29.7982593,17.1860575 32.8286296,18.2889733 35.406037,21.8149281 C37.9571481,25.3049076 38.3843086,30.3483573 38.4013457,30.5613758 C38.414679,30.7294251 38.289,30.8764066 38.1206049,30.8898357 C37.9543086,30.9041273 37.804679,30.7779671 37.7913457,30.6096715 C37.7872716,30.5592813 37.3592469,25.5228542 34.911716,22.1748049 C32.4696173,18.8341478 29.723321,17.8341068 25.7287531,18.8306982 C21.7286296,19.8286448 19.7196173,23.0889733 19.5329506,24.6127515 C19.4465309,25.3180903 19.3969012,26.3661807 19.3443086,27.4758727 C19.2725802,28.9873306 19.1983827,30.5505339 19.0210988,31.611807 C18.7101111,33.4740246 17.2149259,36.1860986 17.1513457,36.3006776 C17.0955432,36.4012115 16.9910988,36.4581314 16.8834444,36.4581314" id="Fill-30" fill="#FEFEFE"></path>
            <path d="M24.5687407,54.5626324 C24.4077531,54.5626324 24.2729383,54.4369651 24.263679,54.2745832 C24.2540494,54.1064107 24.3830617,53.9621396 24.5515802,53.9524066 C24.5868889,53.9504353 28.1119506,53.7222628 30.8557778,51.3791828 C33.5962716,49.0386899 34.9905926,46.8743778 36.9068889,43.1919548 C38.7992346,39.5559795 39.905284,34.0416468 39.425037,30.6381561 C38.7283704,25.7007844 37.483679,22.2392649 35.6197284,20.0556099 C33.4321975,17.4928583 30.8019506,16.3943778 27.0904691,16.4989774 C23.8244198,16.5892854 20.6367654,18.1752813 18.9694815,20.5394292 C17.5524444,22.5488747 17.7087407,25.2411129 17.846642,27.6164723 C17.8686173,27.99446 17.8892346,28.3516263 17.9031852,28.6997988 C18.0081235,31.3176222 17.1692346,32.533885 17.1335556,32.5843984 C17.0359012,32.7221396 16.8451605,32.7549117 16.7071358,32.6574579 C16.5691111,32.5601273 16.5362716,32.369655 16.6338025,32.2319138 C16.6404691,32.2224271 17.3876296,31.1128583 17.2918272,28.7240698 C17.2781235,28.3814415 17.2575062,28.0269856 17.2357778,27.6517084 C17.0992346,25.2992649 16.9292346,22.3715852 18.4691111,20.1879302 C20.243679,17.6716263 23.6210864,15.9841109 27.0735556,15.8885051 C30.9873827,15.7811951 33.766642,16.9431253 36.0855309,19.6595113 C38.0271358,21.9340903 39.3177531,25.4973758 40.030963,30.5530226 C40.5265185,34.0649322 39.3926914,39.7401684 37.4499753,43.4734743 C35.4965185,47.227232 34.0710864,49.4370062 31.2535556,51.8431663 C28.3481235,54.3241109 24.7384938,54.5536386 24.5862716,54.5621396 C24.5803457,54.5626324 24.5745432,54.5626324 24.5687407,54.5626324" id="Fill-32" fill="#FEFEFE"></path>
            <path d="M13.3138642,35.5273676 C13.1597901,35.5273676 13.027321,35.4116797 13.0101605,35.2553347 C12.9917654,35.0886407 13.1115185,34.9387023 13.2779383,34.9188665 C13.3534938,34.9085175 14.9197901,34.6537331 15.5706543,31.5000986 C16.2678148,28.1223573 15.9695432,23.3850678 15.9664568,23.3377577 L15.9637407,23.2962382 L15.9722593,23.2555811 C15.9828765,23.2046982 16.2383086,21.9942259 16.788679,20.5385791 C17.5362099,18.5607967 18.4311481,17.1550472 19.448679,16.360386 C21.8618889,14.475499 24.1749753,14.6595893 24.2725062,14.6683121 C24.4407778,14.6833429 24.5648519,14.8318029 24.5496667,14.9998522 C24.5344815,15.167655 24.3847284,15.2903655 24.2174444,15.2764435 C24.1967037,15.2752115 22.0390494,15.1127064 19.8258395,16.8411253 C17.7020123,18.4998111 16.6820123,22.8804271 16.5797901,23.3410842 C16.6112716,23.857306 16.8560864,28.2986612 16.1699136,31.6233018 C15.4197901,35.257922 13.4318889,35.5162793 13.3475679,35.5255195 C13.3362099,35.5267515 13.3249753,35.5273676 13.3138642,35.5273676" id="Fill-34" fill="#FEFEFE"></path>
            <path d="M44.4192469,30.7460205 C44.2944321,30.7460205 44.1771481,30.6691417 44.1318395,30.5453224 C44.1277654,30.5342341 43.7118395,29.411729 42.4165309,27.0254045 C42.1893704,26.6067598 41.9486296,26.1175195 41.6699877,25.5507844 C40.3612222,22.8892238 38.383321,18.866883 35.0086296,16.9685667 C30.9898642,14.7079097 26.4714691,15.2624476 26.426284,15.2683614 C26.259,15.2915236 26.1052963,15.172386 26.083321,15.0051992 C26.0614691,14.8381355 26.1793704,14.6848706 26.3469012,14.6629405 C26.5392469,14.6376838 31.1073951,14.0730431 35.3091235,16.4364517 C38.8491235,18.4280329 40.8772716,22.5525092 42.2193704,25.2817084 C42.4950494,25.8424066 42.733321,26.3267187 42.9545556,26.7343984 C44.276037,29.1688953 44.6897407,30.2896756 44.7067778,30.3362464 C44.7645556,30.4945626 44.6827037,30.6696345 44.5240617,30.7274168 C44.4894938,30.7399836 44.4540617,30.7460205 44.4192469,30.7460205" id="Fill-36" fill="#FEFEFE"></path>
            <path d="M16.8834444,16.4920903 C16.8212222,16.4920903 16.7585062,16.4732402 16.7043086,16.4340616 C16.5673951,16.3352526 16.5367778,16.1444107 16.6357901,16.007655 C16.7083827,15.9078604 18.4540617,13.5544312 22.2280123,13.029462 C22.4840617,12.9936099 22.6528272,12.9697084 22.7640617,12.9533224 L22.7623333,12.9390308 C23.0436914,12.9055195 23.3092469,12.8737331 23.3487531,13.177922 C23.387642,13.4775524 23.0910988,13.522152 22.931716,13.5459302 C22.8134444,13.5635483 22.6186296,13.5915154 22.3124568,13.6341437 C18.7940617,14.1236304 17.1477654,16.343384 17.1315926,16.365807 C17.071716,16.4483532 16.9782593,16.4920903 16.8834444,16.4920903" id="Fill-38" fill="#FEFEFE"></path>
            <path d="M40.9764444,19.059154 C40.904963,19.059154 40.833358,19.0342669 40.7752099,18.9837536 C40.7265679,18.9412485 35.8561975,14.7238768 31.6891605,13.5358275 C29.536321,12.9220287 27.7439753,12.9360739 26.619037,13.0559507 C25.3986667,13.1861766 24.6782963,13.4654784 24.6712593,13.4681889 C24.5138519,13.530037 24.3364444,13.4532813 24.2743457,13.2968131 C24.2121235,13.1400986 24.2886667,12.9629322 24.4454568,12.9007146 C24.569284,12.8516797 27.5237284,11.7130349 31.8573086,12.9486407 C36.1570617,14.1746366 40.9748395,18.3469158 41.1779259,18.5238357 C41.3050864,18.6348419 41.3181728,18.827655 41.2069383,18.9546776 C41.1464444,19.0237947 41.0616296,19.059154 40.9764444,19.059154" id="Fill-40" fill="#FEFEFE"></path>
            <path d="M43.501037,24.0303573 C43.3478272,24.0303573 43.2156049,23.9157782 43.1974568,23.7604189 C43.1936296,23.7280164 42.8675802,21.2211992 40.571037,19.5977495 C38.2091852,17.928345 37.4425185,17.5982834 37.4349877,17.5952033 C37.2798025,17.5299055 37.2059753,17.3515072 37.2704198,17.196271 C37.3349877,17.0411581 37.5121481,16.9669897 37.6681975,17.0305626 C37.7000494,17.043499 38.4765926,17.3691253 40.9247407,19.0995154 C43.4546173,20.8878111 43.7921481,23.5763532 43.805358,23.6899466 C43.8247407,23.8575031 43.7042469,24.0089199 43.5364691,24.0282628 C43.5244938,24.0296181 43.5127654,24.0303573 43.501037,24.0303573" id="Fill-42" fill="#FEFEFE"></path>
            <path d="M41.8696914,15.2710103 C41.850679,15.2710103 41.8312963,15.2691622 41.8119136,15.2654661 C41.7338889,15.2505585 40.9743827,15.0740082 38.3469753,13.504152 C36.177963,12.2081766 30.9816667,11.8071499 29.440679,11.715117 C25.7214198,11.4935975 19.7637654,12.8112567 19.7040123,12.8246858 C19.5394444,12.86177 19.3756173,12.7579097 19.3387037,12.5934333 C19.3017901,12.4288337 19.4054938,12.2655893 19.5704321,12.2288747 C19.8178395,12.1734333 25.673642,10.8785667 29.4772222,11.1055072 C35.5408025,11.4677248 37.9199383,12.5372526 38.6614198,12.9802916 C41.1841358,14.4876838 41.9031481,14.6602916 41.9325309,14.6668214 C42.0954938,14.7035359 42.2011728,14.8643162 42.1669753,15.0275606 C42.1368519,15.171462 42.0114198,15.2710103 41.8696914,15.2710103" id="Fill-44" fill="#FEFEFE"></path>
            <path d="M42.6855432,18.4643039 C42.559,18.4643039 42.450358,18.3875483 42.4038148,18.2781437 C42.3672716,18.2453717 42.2948025,18.1880821 42.2244321,18.132271 C41.9071481,17.8809363 41.3166543,17.4130103 40.3098642,16.4020041 C38.7675185,14.8529692 34.4009753,13.480115 34.3570247,13.4664394 C34.1956667,13.4161725 34.1057901,13.2450431 34.1561605,13.0840164 C34.2064074,12.9228665 34.3778889,12.8328049 34.5393704,12.8835647 C34.7245556,12.9412238 39.094679,14.3153101 40.7438148,15.9715318 C41.7254198,16.9571581 42.2973951,17.410423 42.6049259,17.6539959 C42.8623333,17.8578973 42.9915926,17.9602793 42.9915926,18.158883 C42.9915926,18.3276715 42.8545556,18.4643039 42.6855432,18.4643039" id="Fill-46" fill="#FEFEFE"></path>
            <path d="M40.5457654,12.8410842 C40.4025556,12.8410842 40.1936667,12.736731 39.7986049,12.5393593 C38.6034198,11.9420698 35.8044074,10.5435893 31.984284,9.77590965 C27.0393457,8.78190554 22.3646543,9.76494456 22.3179877,9.77504723 C22.1530494,9.81028337 21.989963,9.70580698 21.9544074,9.54096099 C21.9187284,9.37611499 22.0237901,9.21373306 22.1889753,9.17812731 C22.2368765,9.16777823 27.0365062,8.15886653 32.1050247,9.17726489 C36.0052716,9.96108419 38.8555185,11.385191 40.0725556,11.9933224 C40.2646543,12.0892977 40.4624321,12.1881068 40.5450247,12.2219877 C40.6066296,12.2255606 40.6676173,12.2477372 40.7193457,12.2893799 C40.8507037,12.3954579 40.8709506,12.5877782 40.7647778,12.7188665 C40.6978642,12.8012895 40.6344074,12.8410842 40.5457654,12.8410842 L40.5457654,12.8410842 Z" id="Fill-48" fill="#FEFEFE"></path>
            <path d="M19.1339877,12.5298973 C19.0222593,12.5298973 18.9147284,12.4686653 18.8607778,12.3623409 C18.8364568,12.3144148 18.7241111,12.0577823 18.9055926,11.7183573 C19.3094198,10.9627515 20.8858395,10.4116632 23.5910247,10.0803696 C27.2291728,9.63511294 29.905716,9.92858316 30.0178148,9.94151951 C30.185716,9.96049281 30.3063333,10.1117864 30.287321,10.2792197 C30.2683086,10.446653 30.1163333,10.5654209 29.9488025,10.5482957 C29.9218889,10.5450924 27.2271975,10.2503901 23.6655926,10.6865298 C20.4065802,11.0855852 19.6480617,11.7105955 19.4732469,11.9608214 C19.4139877,12.0457084 19.4152222,12.0960986 19.4168272,12.1086653 C19.4769506,12.254538 19.4153457,12.4244353 19.2720123,12.4968789 C19.2276914,12.5193018 19.1804074,12.5298973 19.1339877,12.5298973 L19.1339877,12.5298973 Z" id="Fill-50" fill="#FEFEFE"></path>
            <path d="M38.0961481,46.2679343 C38.0294815,46.2679343 37.962321,46.2461273 37.9060247,46.2016509 C37.7738025,46.0966817 37.7517037,45.904731 37.8567654,45.7726571 C37.8897284,45.7311376 41.1684938,41.5523285 41.5645432,36.1193101 C41.952321,30.7987762 39.4614568,24.0341766 38.9112099,23.462883 C38.7929383,23.4208706 38.7081235,23.3080164 38.7081235,23.1753265 C38.7081235,23.0066612 38.8451605,22.8700287 39.0141728,22.8700287 C39.1926914,22.8700287 39.3114568,22.9974209 39.3503457,23.0393101 C40.2094815,23.9612402 42.5499753,31.0141355 42.1747901,36.16354 C41.7646667,41.7904805 38.4756543,45.9771745 38.3357778,46.152616 C38.275284,46.228386 38.1862716,46.2679343 38.0961481,46.2679343 L38.0961481,46.2679343 Z" id="Fill-52" fill="#FEFEFE"></path>
            <path d="M39.0141481,48.1508871 C38.9358765,48.1508871 38.8574815,48.1210719 38.7978519,48.0613183 C38.6783457,47.9421807 38.6783457,47.7488747 38.7978519,47.6297372 C38.8121728,47.615076 40.3210617,46.0597577 42.4034074,41.1117906 C43.2236543,39.1632074 44.0353827,36.3538029 43.244642,34.0368419 C43.1941481,33.8891211 43.1506914,33.7616057 43.2488395,33.6247269 L43.3404444,33.4970883 L43.5014321,33.4952402 C43.6672346,33.4952402 43.8024198,33.6270678 43.8072346,33.7915441 C43.8118025,33.8053429 43.8174815,33.8213593 43.8237778,33.8400862 C44.6764938,36.3384025 43.8288395,39.3020575 42.9676049,41.3483409 C40.827358,46.4338029 39.294642,47.9973758 39.2304444,48.0613183 C39.1708148,48.1210719 39.0924198,48.1508871 39.0141481,48.1508871" id="Fill-54" fill="#FEFEFE"></path>
            <path d="M29.0670864,54.6338563 C28.9728889,54.6338563 28.8785679,54.5989897 28.8080741,54.4921725 C28.6835062,54.3033018 28.7448642,54.1511458 29.031037,53.8889692 C29.2173333,53.5358686 29.7521481,53.0357864 31.1075802,52.4062177 C31.1973333,52.3534867 31.286716,52.3016181 31.3754815,52.2499959 C32.2793086,51.7247803 33.1328889,51.2286407 33.8073333,50.3110226 C34.9317778,48.7807146 36.895358,46.8907762 36.9784444,46.8111869 C37.1000494,46.6943901 37.2938765,46.697963 37.411037,46.8195647 C37.5280741,46.9411663 37.5243704,47.1343491 37.402642,47.251269 C37.382642,47.2703655 35.3936296,49.1846982 34.3006667,50.6722546 C34.1144938,50.9254374 33.9159753,51.1499138 33.7088148,51.3523368 C36.7316543,50.0307351 37.8285679,48.4086407 37.8402963,48.3907762 C37.9330123,48.2502012 38.1225185,48.210653 38.2635062,48.3026858 C38.4047407,48.3948419 38.4447407,48.5832197 38.3528889,48.7242875 C38.2964691,48.8108994 36.9258519,50.8618645 32.9714074,52.3049446 C32.3368395,52.5365667 31.8201728,52.7498316 31.3995556,52.9432608 C30.9725185,53.1942259 30.5395556,53.4610842 30.1265926,53.7848624 C29.8686914,53.9871622 29.6931358,54.1308172 29.574,54.2322136 L29.6348642,54.3998932 L29.4041235,54.5253142 C29.3421481,54.5591951 29.2047407,54.6338563 29.0670864,54.6338563" id="Fill-56" fill="#FEFEFE"></path>
        </g>
    </g>
</svg>